<?xml version="1.0" standalone="no"?><!DOCTYPE svg PUBLIC "-//W3C//DTD SVG 1.1//EN" "http://www.w3.org/Graphics/SVG/1.1/DTD/svg11.dtd"><svg t="1601431179268" class="icon" viewBox="0 0 1024 1024" version="1.1" xmlns="http://www.w3.org/2000/svg" p-id="1588" xmlns:xlink="http://www.w3.org/1999/xlink" width="800" height="800"><defs><style type="text/css"></style></defs><path d="M897.61 92.94H126.39A61.38 61.38 0 0 0 65 154.32v119.35a61.38 61.38 0 0 0 61.39 61.39h771.22A61.38 61.38 0 0 0 959 273.67V154.32a61.38 61.38 0 0 0-61.39-61.38zM176.75 251.25A37.25 37.25 0 1 1 214 214a37.36 37.36 0 0 1-37.25 37.25z m130.37 0A37.25 37.25 0 1 1 344.37 214a37.35 37.35 0 0 1-37.25 37.25z m130.38 0A37.25 37.25 0 1 1 474.75 214a37.36 37.36 0 0 1-37.25 37.25zM65 452.32v119.36a61.38 61.38 0 0 0 61.39 61.38h771.22A61.38 61.38 0 0 0 959 571.68V452.32a61.38 61.38 0 0 0-61.39-61.38H126.39A61.38 61.38 0 0 0 65 452.32zM810 512a37.25 37.25 0 1 1 37.25 37.25A37.36 37.36 0 0 1 810 512z m-130.37 0a37.25 37.25 0 1 1 37.25 37.25A37.36 37.36 0 0 1 679.63 512z m-130.38 0a37.25 37.25 0 1 1 37.25 37.25A37.36 37.36 0 0 1 549.25 512zM897.61 688.94H126.39A61.38 61.38 0 0 0 65 750.33v119.35a61.38 61.38 0 0 0 61.39 61.38h771.22A61.38 61.38 0 0 0 959 869.68V750.33a61.38 61.38 0 0 0-61.39-61.39zM176.75 847.25A37.25 37.25 0 1 1 214 810a37.36 37.36 0 0 1-37.25 37.25z m130.37 0A37.25 37.25 0 1 1 344.37 810a37.35 37.35 0 0 1-37.25 37.25z m130.38 0A37.25 37.25 0 1 1 474.75 810a37.36 37.36 0 0 1-37.25 37.25z" p-id="1589"></path></svg>