<?xml version="1.0" standalone="no"?><!DOCTYPE svg PUBLIC "-//W3C//DTD SVG 1.1//EN" "http://www.w3.org/Graphics/SVG/1.1/DTD/svg11.dtd"><svg t="1602557436581" class="icon" viewBox="0 0 1533 1024" version="1.1" xmlns="http://www.w3.org/2000/svg" p-id="2248" xmlns:xlink="http://www.w3.org/1999/xlink" width="1197.65625" height="800"><defs><style type="text/css"></style></defs><path d="M1035.3781147 348.12689971l-136.70511246 136.56065942a176.3146019 176.3146019 0 0 1 1.28771783 21.44934654 195.33296585 195.33296585 0 0 1-195.18928529 194.76133347 175.74219704 175.74219704 0 0 1-21.30721092-1.28694535L597.66761017 785.40867996a449.86618996 449.86618996 0 0 0 107.5325489 12.58363723c217.78421402 0 377.79647828-174.74184036 487.90369035-289.42365645a1268.09074402 1268.09074402 0 0 0-157.72496224-160.4425335z m-39.03785706-162.01529502l-81.07910156 81.07910156a452.15349197 452.15349197 0 0 0-210.49049378-53.76666069c-178.31608772 0-317.30850219 111.5370655-487.76000976 292.56995202 80.64960479 84.93993759 154.2928505 164.44550514 240.23391724 219.21329498l-53.33793641 53.3379364 59.34316636 59.34316635 592.43362427-592.43362427zM510.15300942 506.13690567a194.47474479 194.47474479 0 0 1 317.3085022-151.14655495l-57.19877244 57.19799996a112.25237846 112.25237846 0 0 0-64.77676392-20.59112549A113.25273514 113.25273514 0 0 0 611.68032837 570.91444206l-57.91331292 58.48571778a193.18857193 193.18857193 0 0 1-44.04273033-123.26325417z" p-id="2249"></path></svg>