<?xml version="1.0" standalone="no"?><!DOCTYPE svg PUBLIC "-//W3C//DTD SVG 1.1//EN" "http://www.w3.org/Graphics/SVG/1.1/DTD/svg11.dtd"><svg t="1603870263185" class="icon" viewBox="0 0 1024 1024" version="1.1" xmlns="http://www.w3.org/2000/svg" p-id="698" xmlns:xlink="http://www.w3.org/1999/xlink" width="800" height="800"><defs><style type="text/css"></style></defs><path d="M279.218 329.892l45.576 45.546c0.488 0.52 0.976 1.007 1.496 1.527 104.843 103.151 273.466 101.818 376.617-3.023l43.367-44.05-43.367-44.049c-0.488-0.521-1.008-1.041-1.496-1.529-3.574-3.576-7.442-6.762-11.149-10.078l29.454-51.039c9.167-15.93 3.704-36.281-12.192-45.481-15.929-9.2-36.279-3.739-45.48 12.191l-26.657 46.164c-28.381-14.695-58.84-23.765-89.855-27.536v-80.753c0-18.4-14.89-33.289-33.289-33.289s-33.289 14.889-33.289 33.289v81.013c-33.387 4.292-66.025 14.857-96.162 31.794l-29.258-50.682c-9.201-15.93-29.584-21.391-45.481-12.191-15.928 9.2-21.391 29.551-12.189 45.481l33.127 57.346c-1.366 1.3-2.861 2.438-4.195 3.771l-45.578 45.578zM512.24 260.94c36.768 0 66.58 29.811 66.58 66.579 0 36.768-29.812 66.578-66.58 66.578s-66.577-29.81-66.577-66.578 29.81-66.579 66.577-66.579zM878.423 660.433h-33.288v-99.867c0-18.401-14.89-33.312-33.292-33.312H212.638c-18.4 0-33.289 14.91-33.289 33.312v99.867H146.06c-36.768 0-66.58 29.811-66.58 66.578v133.157c0 36.768 29.812 66.579 66.58 66.579h133.157c36.767 0 66.577-29.812 66.577-66.579V727.011c0-36.768-29.81-66.578-66.577-66.578h-33.292v-66.579h532.628v66.579h-33.289c-36.768 0-66.58 29.811-66.58 66.578v133.157c0 36.768 29.812 66.579 66.58 66.579h133.157c36.768 0 66.577-29.812 66.577-66.579V727.011c0.002-36.768-29.808-66.578-66.575-66.578z" p-id="699"></path></svg>