<?xml version="1.0" standalone="no"?><!DOCTYPE svg PUBLIC "-//W3C//DTD SVG 1.1//EN" "http://www.w3.org/Graphics/SVG/1.1/DTD/svg11.dtd"><svg t="1608263527127" class="icon" viewBox="0 0 1024 1024" version="1.1" xmlns="http://www.w3.org/2000/svg" p-id="1379" xmlns:xlink="http://www.w3.org/1999/xlink" width="800" height="800"><defs><style type="text/css"></style></defs><path d="M409.6 961.422222c-88.177778 0-173.511111 0-261.688889 0-39.822222 0-79.644444 2.844444-88.177778-48.355556-8.533333-48.355556-5.688889-93.866667 45.511111-119.466667 48.355556-22.755556 93.866667-51.2 139.377778-76.8 28.444444-14.222222 34.133333-22.755556 11.377778-54.044444-62.577778-91.022222-68.266667-196.266667-59.733333-304.355556 14.222222-136.533333 219.022222-204.8 341.333333-113.777778 79.644444 59.733333 113.777778 193.422222 73.955556 312.888889-8.533333 22.755556-8.533333 48.355556-25.6 65.422222-68.266667 73.955556-8.533333 99.555556 42.666667 128 25.6 14.222222 54.044444 28.444444 79.644444 39.822222 56.888889 22.755556 54.044444 71.111111 48.355556 116.622222-8.533333 48.355556-45.511111 51.2-85.333333 51.2C588.8 961.422222 500.622222 961.422222 409.6 961.422222L409.6 961.422222zM418.133333 904.533333c73.955556 0 150.755556 2.844444 224.711111 0 22.755556 0 56.888889 17.066667 65.422222-19.911111 8.533333-36.977778-25.6-45.511111-48.355556-59.733333-48.355556-28.444444-96.711111-54.044444-145.066667-82.488889-36.977778-19.911111-42.666667-51.2-14.222222-82.488889 76.8-79.644444 71.111111-179.2 68.266667-278.755556-2.844444-59.733333-68.266667-122.311111-136.533333-128-73.955556-5.688889-167.822222 45.511111-173.511111 102.4-8.533333 102.4-19.911111 207.644444 59.733333 290.133333 42.666667 45.511111 25.6 79.644444-22.755556 108.088889-51.2 28.444444-102.4 54.044444-153.6 82.488889-19.911111 11.377778-36.977778 22.755556-28.444444 48.355556 8.533333 25.6 31.288889 17.066667 45.511111 19.911111C247.466667 907.377778 332.8 904.533333 418.133333 904.533333L418.133333 904.533333zM418.133333 904.533333" p-id="1380"></path><path d="M443.733333 133.688889c133.688889-116.622222 329.955556-85.333333 369.777778 59.733333 28.444444 105.244444 25.6 221.866667-45.511111 315.733333-31.288889 42.666667-14.222222 56.888889 17.066667 76.8 39.822222 22.755556 79.644444 45.511111 122.311111 65.422222 62.577778 25.6 65.422222 76.8 51.2 128-14.222222 54.044444-65.422222 39.822222-108.088889 39.822222-25.6 0-34.133333-17.066667-34.133333-34.133333 0-25.6 19.911111-19.911111 36.977778-19.911111 19.911111-2.844444 45.511111 11.377778 54.044444-19.911111 8.533333-36.977778-22.755556-45.511111-42.666667-56.888889-39.822222-25.6-85.333333-45.511111-128-68.266667-62.577778-31.288889-73.955556-62.577778-28.444444-113.777778 73.955556-88.177778 65.422222-193.422222 54.044444-292.977778-8.533333-73.955556-142.222222-125.155556-221.866667-85.333333C512 139.377778 486.4 145.066667 443.733333 133.688889L443.733333 133.688889zM443.733333 133.688889" p-id="1381"></path></svg>